<?xml version="1.0" encoding="UTF-8"?>
<svg xmlns="http://www.w3.org/2000/svg" version="1.1" viewBox="0 0 1687.65 1932.39">
  <!-- Generator: Adobe Illustrator 29.7.1, SVG Export Plug-In . SVG Version: 2.1.1 Build 8)  -->
  <defs>
    <style>
      .st0 {
        font-size: 44.47px;
        letter-spacing: .2em;
      }

      .st0, .st1, .st2, .st3, .st4 {
        fill: #121212;
      }

      .st0, .st2, .st5, .st6 {
        font-family: Pretendard-Bold-KSCpc-EUC-H, Pretendard;
        font-weight: 700;
      }

      .st1 {
        font-size: 101.63px;
      }

      .st1, .st4 {
        font-family: Pretendard-SemiBold-KSCpc-EUC-H, Pretendard;
        font-weight: 600;
      }

      .st2 {
        font-size: 40.15px;
        letter-spacing: .2em;
      }

      .st7, .st8 {
        fill: #003626;
      }

      .st5 {
        font-size: 97.83px;
      }

      .st8 {
        letter-spacing: 0em;
      }

      .st4 {
        font-size: 127.64px;
      }

      .st6 {
        font-size: 88.32px;
      }
    </style>
  </defs>
  <g id="Layer_1">
    <g>
      <path class="st7" d="M1334.35-1351.66c-76.82-72.84-182.83-109.28-318.07-109.28s-248.41,39.26-331.27,117.77c-59.9,56.75-97.82,126.77-114.42,209.65-.41,2.05-1.01,3.99-1.39,6.06-5.57,29.96-8.49,61.52-8.49,94.84,0,50.36,6.38,97.28,18.82,140.93,30.13.28,61.61.45,95.41.45,11.66,0,22.69-.05,33.81-.1-19.28-55.88-29.08-118.9-29.08-189.33,0-66.4,12.9-124.9,38.71-175.49,25.8-50.58,61.38-88.96,106.73-115.14,45.35-26.17,99.3-39.26,161.86-39.26,68.43,0,127.66,14.85,177.71,44.53,50.04,29.7,89.43,73.93,118.16,132.71,28.73,58.79,43.11,129.6,43.11,212.4s-13,145.9-39,200.97c-26,55.08-61.68,96.49-107.04,124.22-36.55,22.35-78.29,35.25-124.75,39.58-11.19,1.04-22.41,2.02-34.17,2.02-64.36,0-121.67-15.92-171.98-47.62-.73-.46-1.49-.84-2.21-1.31-19.57-12.56-37.58-27.6-54.1-45.02-32.57-.57-67.92-.89-106.62-.89-11.88,0-23.48.01-34.81.04,30.01,38.64,65.99,69.97,108.22,93.63,27.43,15.37,57.34,27.1,89.46,35.6,39.73,10.51,82.92,15.96,129.82,15.96,26.47,0,51.78-2.17,76.48-5.5,101.87-13.74,188.93-55.32,260.65-125.75,89.12-87.49,133.69-196.29,133.69-326.36,0-120.7-38.4-217.47-115.22-290.33Z"/>
      <path class="st7" d="M896.1-561.58c-1.01,39.67-2.86,72.13-5.54,97.37-1.96,18.78-7.23,31.59-15.82,38.44-8.6,6.86-27.74,10.27-57.42,10.27h-40.43v36.91c56.64-2.74,117.77-4.1,183.4-4.1,57.42,0,113.08,1.36,166.99,4.1v-36.91h-45.7c-35.94,0-57.33-6.93-64.16-20.8-5.13-10.39-8.33-50.55-9.61-120.48-9.78.51-19.57,1.06-29.05,1.06-28.46,0-56.01-2.11-82.65-5.86Z"/>
      <path class="st7" d="M409.51-792.85v163.73c0,28.17.97,61.23,2.93,99.17,2.34,53.21,4.29,82.65,5.86,88.32,1.56,5.67,7.22,11.44,16.99,17.31,9.76,5.87,25.58,8.8,47.46,8.8h39.84v36.91c-50.79-2.74-99.81-4.1-147.07-4.1s-111.14,1.36-196.29,4.1v-36.91h36.33c41.02,0,65.23-6.93,72.66-20.8,7.42-13.86,11.13-77.44,11.13-190.72v-353.32c0-102.34-3.81-160.44-11.43-174.31-7.62-13.86-29.4-20.8-65.33-20.8h-43.36v-36.91c64.45,2.74,124.41,4.1,179.88,4.1s110.34-1.36,163.48-4.1v36.91h-25.2c-36.33,0-58.79,2.94-67.38,8.81-8.6,5.86-13.87,15.45-15.82,28.75-3.13,21.54-4.69,73.78-4.69,156.74v188.32Z"/>
      <path class="st7" d="M897-792.85v62.47c33.33,16.69,69.73,25.73,110.16,27.42v-258.05c0-94.14.88-150.09,2.64-167.87,1.76-17.77,6.83-29.98,15.23-36.62,8.39-6.63,27.63-9.96,57.71-9.96h44.53v-36.91c-62.51,2.74-122.66,4.1-180.47,4.1-53.52,0-110.16-1.36-169.92-4.1v36.91h42.19c27.73,0,46.09,3.53,55.08,10.57,8.98,7.04,14.25,18.59,15.82,34.63,4.69,45.39,7.03,101.55,7.03,168.47v168.95Z"/>
      <path class="st7" d="M770.99-851.29c-16.18,6.09-46.44,8.38-90.79,6.89-13.27-.35-25.22-.63-36.36-.87v-.04c-34.85-.98-63.3-.71-85.2.83-14.94,1.08-28.02,3.73-39.22,7.94-15.44,5.81-28.51,16.03-39.21,30.64-10.7,14.62-16.67,31.03-17.92,49.24-1.25,18.21,3.14,41.02,13.18,68.42-7.88-49.62,23.04-87.56,59.89-101.43,16.18-6.09,46.44-8.38,90.79-6.89,13.27.35,25.22.63,36.36.87v.04c34.85.98,63.3.71,85.2-.83,14.94-1.08,28.02-3.73,39.22-7.94,15.44-5.81,28.51-16.03,39.21-30.64,10.7-14.62,16.67-31.03,17.92-49.24,1.25-18.21-3.14-41.02-13.18-68.42,7.88,49.62-23.04,87.56-59.89,101.43Z"/>
    </g>
  </g>
  <g id="Layer_2">
    <g>
      <path class="st7" d="M457.95,208.31c-13.74-13.03-32.7-19.55-56.89-19.55s-44.43,7.02-59.26,21.07c-10.72,10.15-17.5,22.68-20.47,37.5-.07.37-.18.71-.25,1.08-1,5.36-1.52,11-1.52,16.96,0,9.01,1.14,17.4,3.37,25.21,5.39.05,11.02.08,17.07.08,2.09,0,4.06,0,6.05-.02-3.45-10-5.2-21.27-5.2-33.87,0-11.88,2.31-22.34,6.92-31.39,4.62-9.05,10.98-15.91,19.09-20.59,8.11-4.68,17.76-7.02,28.95-7.02,12.24,0,22.84,2.66,31.79,7.97,8.95,5.31,16,13.22,21.14,23.74,5.14,10.52,7.71,23.18,7.71,37.99s-2.32,26.1-6.98,35.95c-4.65,9.85-11.03,17.26-19.15,22.22-6.54,4-14,6.3-22.31,7.08-2,.19-4.01.36-6.11.36-11.51,0-21.76-2.85-30.76-8.52-.13-.08-.27-.15-.4-.23-3.5-2.25-6.72-4.94-9.68-8.05-5.83-.1-12.15-.16-19.07-.16-2.13,0-4.2,0-6.23,0,5.37,6.91,11.8,12.52,19.36,16.75,4.91,2.75,10.26,4.85,16,6.37,7.11,1.88,14.83,2.86,23.22,2.86,4.73,0,9.26-.39,13.68-.98,18.22-2.46,33.8-9.89,46.62-22.49,15.94-15.65,23.91-35.11,23.91-58.38,0-21.59-6.87-38.9-20.61-51.93Z"/>
      <path class="st7" d="M379.56,349.63c-.18,7.1-.51,12.9-.99,17.42-.35,3.36-1.29,5.65-2.83,6.88-1.54,1.23-4.96,1.84-10.27,1.84h-7.23v6.6c10.13-.49,21.07-.73,32.8-.73,10.27,0,20.23.24,29.87.73v-6.6h-8.18c-6.43,0-10.25-1.24-11.48-3.72-.92-1.86-1.49-9.04-1.72-21.55-1.75.09-3.5.19-5.2.19-5.09,0-10.02-.38-14.78-1.05Z"/>
      <path class="st7" d="M292.52,308.26v29.29c0,5.04.17,10.95.52,17.74.42,9.52.77,14.78,1.05,15.8.28,1.01,1.29,2.05,3.04,3.1,1.75,1.05,4.58,1.57,8.49,1.57h7.13v6.6c-9.08-.49-17.85-.73-26.31-.73s-19.88.24-35.11.73v-6.6h6.5c7.34,0,11.67-1.24,13-3.72,1.33-2.48,1.99-13.85,1.99-34.11v-63.2c0-18.31-.68-28.7-2.04-31.18-1.36-2.48-5.26-3.72-11.69-3.72h-7.76v-6.6c11.53.49,22.25.73,32.18.73s19.74-.24,29.24-.73v6.6h-4.51c-6.5,0-10.52.53-12.05,1.58-1.54,1.05-2.48,2.76-2.83,5.14-.56,3.85-.84,13.2-.84,28.04v33.69Z"/>
      <path class="st7" d="M379.72,308.26v11.17c5.96,2.99,12.47,4.6,19.7,4.9v-46.16c0-16.84.16-26.85.47-30.03.31-3.18,1.22-5.36,2.73-6.55,1.5-1.19,4.94-1.78,10.32-1.78h7.97v-6.6c-11.18.49-21.94.73-32.28.73-9.57,0-19.7-.24-30.39-.73v6.6h7.55c4.96,0,8.24.63,9.85,1.89,1.61,1.26,2.55,3.32,2.83,6.19.84,8.12,1.26,18.17,1.26,30.13v30.22Z"/>
      <path class="st7" d="M357.18,297.81c-2.89,1.09-8.31,1.5-16.24,1.23-2.37-.06-4.51-.11-6.5-.16h0c-6.23-.18-11.32-.13-15.24.14-2.67.19-5.01.67-7.02,1.42-2.76,1.04-5.1,2.87-7.01,5.48-1.91,2.62-2.98,5.55-3.21,8.81s.56,7.34,2.36,12.24c-1.41-8.88,4.12-15.66,10.71-18.14,2.89-1.09,8.31-1.5,16.24-1.23,2.37.06,4.51.11,6.5.16h0c6.23.18,11.32.13,15.24-.14,2.67-.19,5.01-.67,7.02-1.42,2.76-1.04,5.1-2.87,7.01-5.48,1.91-2.62,2.98-5.55,3.21-8.81s-.56-7.34-2.36-12.24c1.41,8.88-4.12,15.66-10.71,18.14Z"/>
    </g>
    <g>
      <path class="st7" d="M685.79,1129.03c-28.68-27.2-68.26-40.8-118.75-40.8s-92.74,14.66-123.68,43.97c-22.36,21.19-36.52,47.33-42.72,78.27-.15.77-.38,1.49-.52,2.26-2.08,11.19-3.17,22.97-3.17,35.41,0,18.8,2.38,36.32,7.02,52.62,11.25.1,23,.17,35.62.17,4.35,0,8.47-.02,12.62-.04-7.2-20.86-10.86-44.39-10.86-70.69,0-24.79,4.82-46.63,14.45-65.52,9.63-18.88,22.92-33.21,39.85-42.99,16.93-9.77,37.07-14.66,60.43-14.66,25.55,0,47.66,5.54,66.35,16.63,18.68,11.09,33.39,27.6,44.11,49.55,10.73,21.95,16.1,48.38,16.1,79.3s-4.85,54.47-14.56,75.03c-9.71,20.56-23.03,36.02-39.96,46.38-13.65,8.35-29.23,13.16-46.57,14.78-4.18.39-8.37.75-12.76.75-24.03,0-45.42-5.94-64.21-17.78-.27-.17-.56-.31-.83-.49-7.31-4.69-14.03-10.31-20.2-16.81-12.16-.21-25.36-.33-39.8-.33-4.44,0-8.77,0-13,.01,11.21,14.43,24.64,26.12,40.4,34.96,10.24,5.74,21.41,10.12,33.4,13.29,14.83,3.92,30.96,5.96,48.47,5.96,9.88,0,19.33-.81,28.55-2.05,38.03-5.13,70.54-20.65,97.31-46.95,33.27-32.66,49.91-73.28,49.91-121.85,0-45.06-14.34-81.19-43.02-108.39Z"/>
      <path class="st7" d="M522.18,1424.01c-.38,14.81-1.07,26.93-2.07,36.35-.73,7.01-2.7,11.8-5.91,14.35-3.21,2.56-10.36,3.83-21.44,3.83h-15.09v13.78c21.14-1.02,43.97-1.53,68.47-1.53,21.44,0,42.22.51,62.35,1.53v-13.78h-17.06c-13.42,0-21.4-2.59-23.95-7.77-1.91-3.88-3.11-18.87-3.59-44.98-3.65.19-7.31.4-10.85.4-10.62,0-20.91-.79-30.86-2.19Z"/>
      <path class="st7" d="M340.51,1337.67v61.13c0,10.52.36,22.86,1.09,37.03.88,19.87,1.6,30.86,2.19,32.98.58,2.12,2.7,4.27,6.34,6.46,3.64,2.19,9.55,3.29,17.72,3.29h14.88v13.78c-18.96-1.02-37.26-1.53-54.91-1.53s-41.49.51-73.28,1.53v-13.78h13.56c15.31,0,24.35-2.59,27.13-7.77,2.77-5.18,4.16-28.91,4.16-71.2v-131.91c0-38.21-1.42-59.9-4.27-65.08-2.84-5.18-10.98-7.77-24.39-7.77h-16.19v-13.78c24.06,1.02,46.45,1.53,67.16,1.53s41.2-.51,61.03-1.53v13.78h-9.41c-13.56,0-21.95,1.1-25.16,3.29-3.21,2.19-5.18,5.77-5.91,10.73-1.17,8.04-1.75,27.55-1.75,58.52v70.31Z"/>
      <path class="st7" d="M522.51,1337.67v23.32c12.44,6.23,26.03,9.61,41.13,10.24v-96.34c0-35.15.33-56.04.98-62.67.66-6.63,2.55-11.19,5.69-13.67,3.13-2.48,10.32-3.72,21.55-3.72h16.63v-13.78c-23.34,1.02-45.79,1.53-67.38,1.53-19.98,0-41.13-.51-63.44-1.53v13.78h15.75c10.35,0,17.21,1.32,20.56,3.95,3.35,2.63,5.32,6.94,5.91,12.93,1.75,16.94,2.63,37.91,2.63,62.9v63.08Z"/>
      <path class="st7" d="M475.47,1315.85c-6.04,2.27-17.34,3.13-33.9,2.57-4.95-.13-9.42-.24-13.57-.32h0c-13.01-.38-23.63-.28-31.8.3-5.58.4-10.46,1.39-14.64,2.97-5.76,2.17-10.64,5.98-14.64,11.44-3.99,5.46-6.23,11.59-6.69,18.38-.47,6.8,1.17,15.32,4.92,25.55-2.94-18.52,8.6-32.69,22.36-37.87,6.04-2.27,17.34-3.13,33.9-2.57,4.95.13,9.42.24,13.57.32h0c13.01.38,23.63.28,31.8-.3,5.58-.4,10.46-1.39,14.64-2.97,5.76-2.17,10.64-5.98,14.64-11.44,3.99-5.46,6.23-11.59,6.69-18.38s-1.17-15.32-4.92-25.55c2.94,18.52-8.6,32.69-22.36,37.87Z"/>
    </g>
    <g>
      <path class="st7" d="M1394.18,1129.03c-28.68-27.2-68.26-40.8-118.75-40.8s-92.74,14.66-123.68,43.97c-22.36,21.19-36.52,47.33-42.72,78.27-.15.77-.38,1.49-.52,2.26-2.08,11.19-3.17,22.97-3.17,35.41,0,18.8,2.38,36.32,7.02,52.62,11.25.1,23,.17,35.62.17,4.35,0,8.47-.02,12.62-.04-7.2-20.86-10.86-44.39-10.86-70.69,0-24.79,4.82-46.63,14.45-65.52,9.63-18.88,22.92-33.21,39.85-42.99,16.93-9.77,37.07-14.66,60.43-14.66,25.55,0,47.66,5.54,66.35,16.63,18.68,11.09,33.39,27.6,44.11,49.55,10.73,21.95,16.1,48.38,16.1,79.3s-4.85,54.47-14.56,75.03c-9.71,20.56-23.03,36.02-39.96,46.38-13.65,8.35-29.23,13.16-46.57,14.78-4.18.39-8.37.75-12.76.75-24.03,0-45.42-5.94-64.21-17.78-.27-.17-.56-.31-.83-.49-7.31-4.69-14.03-10.31-20.2-16.81-12.16-.21-25.36-.33-39.8-.33-4.44,0-8.77,0-13,.01,11.21,14.43,24.64,26.12,40.4,34.96,10.24,5.74,21.41,10.12,33.4,13.29,14.83,3.92,30.96,5.96,48.47,5.96,9.88,0,19.33-.81,28.55-2.05,38.03-5.13,70.54-20.65,97.31-46.95,33.27-32.66,49.91-73.28,49.91-121.85,0-45.06-14.34-81.19-43.02-108.39Z"/>
      <path class="st7" d="M1230.56,1424.01c-.38,14.81-1.07,26.93-2.07,36.35-.73,7.01-2.7,11.8-5.91,14.35-3.21,2.56-10.36,3.83-21.44,3.83h-15.09v13.78c21.14-1.02,43.97-1.53,68.47-1.53,21.44,0,42.22.51,62.35,1.53v-13.78h-17.06c-13.42,0-21.4-2.59-23.95-7.77-1.91-3.88-3.11-18.87-3.59-44.98-3.65.19-7.31.4-10.85.4-10.62,0-20.91-.79-30.86-2.19Z"/>
      <path class="st7" d="M1048.9,1337.67v61.13c0,10.52.36,22.86,1.09,37.03.88,19.87,1.6,30.86,2.19,32.98.58,2.12,2.7,4.27,6.34,6.46,3.64,2.19,9.55,3.29,17.72,3.29h14.88v13.78c-18.96-1.02-37.26-1.53-54.91-1.53s-41.49.51-73.28,1.53v-13.78h13.56c15.31,0,24.35-2.59,27.13-7.77,2.77-5.18,4.16-28.91,4.16-71.2v-131.91c0-38.21-1.42-59.9-4.27-65.08-2.84-5.18-10.98-7.77-24.39-7.77h-16.19v-13.78c24.06,1.02,46.45,1.53,67.16,1.53s41.2-.51,61.03-1.53v13.78h-9.41c-13.56,0-21.95,1.1-25.16,3.29-3.21,2.19-5.18,5.77-5.91,10.73-1.17,8.04-1.75,27.55-1.75,58.52v70.31Z"/>
      <path class="st7" d="M1230.9,1337.67v23.32c12.44,6.23,26.03,9.61,41.13,10.24v-96.34c0-35.15.33-56.04.98-62.67.66-6.63,2.55-11.19,5.69-13.67,3.13-2.48,10.32-3.72,21.55-3.72h16.63v-13.78c-23.34,1.02-45.79,1.53-67.38,1.53-19.98,0-41.13-.51-63.44-1.53v13.78h15.75c10.35,0,17.21,1.32,20.56,3.95,3.35,2.63,5.32,6.94,5.91,12.93,1.75,16.94,2.63,37.91,2.63,62.9v63.08Z"/>
      <path class="st7" d="M1183.85,1315.85c-6.04,2.27-17.34,3.13-33.9,2.57-4.95-.13-9.42-.24-13.57-.32h0c-13.01-.38-23.63-.28-31.8.3-5.58.4-10.46,1.39-14.64,2.97-5.76,2.17-10.64,5.98-14.64,11.44-3.99,5.46-6.23,11.59-6.69,18.38-.47,6.8,1.17,15.32,4.92,25.55-2.94-18.52,8.6-32.69,22.36-37.87,6.04-2.27,17.34-3.13,33.9-2.57,4.95.13,9.42.24,13.57.32h0c13.01.38,23.63.28,31.8-.3,5.58-.4,10.46-1.39,14.64-2.97,5.76-2.17,10.64-5.98,14.64-11.44,3.99-5.46,6.23-11.59,6.69-18.38s-1.17-15.32-4.92-25.55c2.94,18.52-8.6,32.69-22.36,37.87Z"/>
    </g>
    <g>
      <path class="st7" d="M463.3,633.39c-13.74-13.03-32.7-19.55-56.89-19.55s-44.43,7.02-59.26,21.07c-10.72,10.15-17.5,22.68-20.47,37.5-.07.37-.18.71-.25,1.08-1,5.36-1.52,11-1.52,16.96,0,9.01,1.14,17.4,3.37,25.21,5.39.05,11.02.08,17.07.08,2.09,0,4.06,0,6.05-.02-3.45-10-5.2-21.27-5.2-33.87,0-11.88,2.31-22.34,6.92-31.39,4.62-9.05,10.98-15.91,19.09-20.59,8.11-4.68,17.76-7.02,28.95-7.02,12.24,0,22.84,2.66,31.79,7.97,8.95,5.31,16,13.22,21.14,23.74,5.14,10.52,7.71,23.18,7.71,37.99s-2.32,26.1-6.98,35.95c-4.65,9.85-11.03,17.26-19.15,22.22-6.54,4-14,6.3-22.31,7.08-2,.19-4.01.36-6.11.36-11.51,0-21.76-2.85-30.76-8.52-.13-.08-.27-.15-.4-.23-3.5-2.25-6.72-4.94-9.68-8.05-5.83-.1-12.15-.16-19.07-.16-2.13,0-4.2,0-6.23,0,5.37,6.91,11.8,12.52,19.36,16.75,4.91,2.75,10.26,4.85,16,6.37,7.11,1.88,14.83,2.86,23.22,2.86,4.73,0,9.26-.39,13.68-.98,18.22-2.46,33.8-9.89,46.62-22.49,15.94-15.65,23.91-35.11,23.91-58.38,0-21.59-6.87-38.9-20.61-51.93Z"/>
      <path class="st7" d="M384.9,774.72c-.18,7.1-.51,12.9-.99,17.42-.35,3.36-1.29,5.65-2.83,6.88-1.54,1.23-4.96,1.84-10.27,1.84h-7.23v6.6c10.13-.49,21.07-.73,32.8-.73,10.27,0,20.23.24,29.87.73v-6.6h-8.18c-6.43,0-10.25-1.24-11.48-3.72-.92-1.86-1.49-9.04-1.72-21.55-1.75.09-3.5.19-5.2.19-5.09,0-10.02-.38-14.78-1.05Z"/>
      <path class="st7" d="M297.86,733.35v29.29c0,5.04.17,10.95.52,17.74.42,9.52.77,14.78,1.05,15.8.28,1.01,1.29,2.05,3.04,3.1,1.75,1.05,4.58,1.57,8.49,1.57h7.13v6.6c-9.08-.49-17.85-.73-26.31-.73s-19.88.24-35.11.73v-6.6h6.5c7.34,0,11.67-1.24,13-3.72,1.33-2.48,1.99-13.85,1.99-34.11v-63.2c0-18.31-.68-28.7-2.04-31.18-1.36-2.48-5.26-3.72-11.69-3.72h-7.76v-6.6c11.53.49,22.25.73,32.18.73s19.74-.24,29.24-.73v6.6h-4.51c-6.5,0-10.52.53-12.05,1.58-1.54,1.05-2.48,2.76-2.83,5.14-.56,3.85-.84,13.2-.84,28.04v33.69Z"/>
      <path class="st7" d="M385.06,733.35v11.17c5.96,2.99,12.47,4.6,19.7,4.9v-46.16c0-16.84.16-26.85.47-30.03.31-3.18,1.22-5.36,2.73-6.55,1.5-1.19,4.94-1.78,10.32-1.78h7.97v-6.6c-11.18.49-21.94.73-32.28.73-9.57,0-19.7-.24-30.39-.73v6.6h7.55c4.96,0,8.24.63,9.85,1.89,1.61,1.26,2.55,3.32,2.83,6.19.84,8.12,1.26,18.17,1.26,30.13v30.22Z"/>
      <path class="st7" d="M362.52,722.9c-2.89,1.09-8.31,1.5-16.24,1.23-2.37-.06-4.51-.11-6.5-.16h0c-6.23-.18-11.32-.13-15.24.14-2.67.19-5.01.67-7.02,1.42-2.76,1.04-5.1,2.87-7.01,5.48-1.91,2.62-2.98,5.55-3.21,8.81-.22,3.26.56,7.34,2.36,12.24-1.41-8.88,4.12-15.66,10.71-18.14,2.89-1.09,8.31-1.5,16.24-1.23,2.37.06,4.51.11,6.5.16h0c6.23.18,11.32.13,15.24-.14,2.67-.19,5.01-.67,7.02-1.42,2.76-1.04,5.1-2.87,7.01-5.48,1.91-2.62,2.98-5.55,3.21-8.81s-.56-7.34-2.36-12.24c1.41,8.88-4.12,15.66-10.71,18.14Z"/>
    </g>
    <g>
      <text class="st5" transform="translate(523.83 319)"><tspan class="st3" x="0" y="0">세무법인 </tspan><tspan class="st7" x="360.75" y="0">하온</tspan></text>
      <text class="st0" transform="translate(674.4 379.18)"><tspan x="0" y="0">Haontax</tspan></text>
    </g>
    <g>
      <text class="st6" transform="translate(252.8 1611.74)"><tspan class="st3" x="0" y="0">세무법인 </tspan><tspan class="st8" x="325.69" y="0">하온</tspan></text>
      <text class="st2" transform="translate(388.74 1665.27)"><tspan x="0" y="0">Haontax</tspan></text>
    </g>
    <text class="st4" transform="translate(514.47 780.38)"><tspan x="0" y="0">HAONTAX</tspan></text>
    <text class="st1" transform="translate(958.29 1613.85)"><tspan x="0" y="0">HAONTAX</tspan></text>
  </g>
</svg>